<svg width="128" height="128" viewBox="0 0 128 128" fill="none" xmlns="http://www.w3.org/2000/svg">
<path d="M23.7785 51.4753L36.1253 56.699C37.6027 53.7442 39.1329 50.8949 40.7158 48.1512C42.2988 45.4075 44.04 42.6637 45.9395 39.92L37.0751 38.1788L23.7785 51.4753ZM46.2561 64.6136L64.3014 82.5007C68.7336 80.8122 73.4824 78.2268 78.5478 74.7444C83.6131 71.2619 88.3619 67.3046 92.7941 62.8724C100.181 55.4854 105.959 47.2806 110.127 38.2579C114.296 29.2352 116.116 20.9249 115.588 13.3268C107.99 12.7992 99.6535 14.6195 90.578 18.7879C81.5026 22.9563 73.2714 28.734 65.8844 36.121C61.4522 40.5532 57.4949 45.3019 54.0124 50.3673C50.53 55.4327 47.9445 60.1814 46.2561 64.6136ZM77.4397 105.137L90.7363 91.84L88.9951 82.9756C86.2514 84.8751 83.5076 86.5899 80.7639 88.1201C78.0201 89.6503 75.1709 91.154 72.2161 92.6314L77.4397 105.137ZM126.985 1.77145C128.99 14.5404 127.75 26.9664 123.265 39.0494C118.78 51.1324 111.051 62.6614 100.076 73.6363L103.241 89.3073C103.664 91.4179 103.558 93.4757 102.925 95.4807C102.292 97.4857 101.236 99.227 99.759 100.704L73.1658 127.298L59.8692 96.1139L32.8012 69.0458L1.61755 55.7492L28.0524 29.1561C29.5298 27.6787 31.2974 26.6234 33.3552 25.9902C35.413 25.3571 37.4972 25.2515 39.6078 25.6736L55.2788 28.8395C66.2537 17.8645 77.7563 10.1082 89.7866 5.57047C101.817 1.03275 114.216 -0.233591 126.985 1.77145ZM12.8563 89.149C16.5498 85.4555 21.0612 83.5824 26.3903 83.5296C31.7195 83.4768 36.2309 85.2972 39.9244 88.9907C43.6179 92.6842 45.4382 97.1955 45.3855 102.525C45.3327 107.854 43.4596 112.365 39.7661 116.059C37.1279 118.697 32.7221 120.966 26.5486 122.865C20.3752 124.765 11.8538 126.453 0.984375 127.931C2.46177 117.061 4.15023 108.54 6.04974 102.366C7.94925 96.193 10.2181 91.7872 12.8563 89.149ZM21.879 98.0134C20.8237 99.0687 19.7684 100.995 18.7132 103.791C17.6579 106.588 16.9192 109.41 16.4971 112.26C19.3463 111.838 22.1692 111.125 24.9657 110.123C27.7622 109.12 29.6881 108.091 30.7434 107.036C32.0097 105.77 32.6957 104.24 32.8012 102.446C32.9067 100.652 32.3263 99.1214 31.06 97.8551C29.7936 96.5887 28.2635 95.982 26.4695 96.0347C24.6755 96.0875 23.1453 96.747 21.879 98.0134Z" fill="#f87171"/>
</svg>
