<svg width="122" height="126" viewBox="0 0 122 126" fill="none" xmlns="http://www.w3.org/2000/svg">
<path d="M50.495 81.9H63.1188L64.0656 74.025C64.9072 73.71 65.6699 73.3425 66.3536 72.9225C67.0374 72.5025 67.6423 72.03 68.1683 71.505L75.427 74.655L81.7389 63.945L75.427 59.22C75.6374 58.38 75.7426 57.54 75.7426 56.7C75.7426 55.86 75.6374 55.02 75.427 54.18L81.7389 49.455L75.427 38.745L68.1683 41.895C67.6423 41.37 67.0374 40.8975 66.3536 40.4775C65.6699 40.0575 64.9072 39.69 64.0656 39.375L63.1188 31.5H50.495L49.5483 39.375C48.7067 39.69 47.944 40.0575 47.2602 40.4775C46.5764 40.8975 45.9715 41.37 45.4455 41.895L38.1869 38.745L31.875 49.455L38.1869 54.18C37.9765 55.02 37.8713 55.86 37.8713 56.7C37.8713 57.54 37.9765 58.38 38.1869 59.22L31.875 63.945L38.1869 74.655L45.4455 71.505C45.9715 72.03 46.5764 72.5025 47.2602 72.9225C47.944 73.3425 48.7067 73.71 49.5483 74.025L50.495 81.9ZM56.8069 66.15C54.177 66.15 51.9415 65.2313 50.1006 63.3938C48.2596 61.5563 47.3391 59.325 47.3391 56.7C47.3391 54.075 48.2596 51.8438 50.1006 50.0063C51.9415 48.1688 54.177 47.25 56.8069 47.25C59.4369 47.25 61.6723 48.1688 63.5133 50.0063C65.3543 51.8438 66.2747 54.075 66.2747 56.7C66.2747 59.325 65.3543 61.5563 63.5133 63.3938C61.6723 65.2313 59.4369 66.15 56.8069 66.15Z" fill="#f87171"/>
<path d="M18.9356 126V98.91C12.9394 93.45 8.28434 87.0713 4.97061 79.7738C1.65687 72.4763 0 64.785 0 56.7C0 40.95 5.5229 27.5625 16.5687 16.5375C27.6145 5.5125 41.0272 0 56.8069 0C69.9567 0 81.6074 3.85875 91.759 11.5763C101.911 19.2938 108.512 29.3475 111.563 41.7375L122 81.9H104.99V100.8C104.99 104.265 103.754 107.231 101.282 109.699C98.8097 112.166 95.8379 113.4 92.3663 113.4H79.7426V126H67.1188V100.8H92.3663V69.3H105.408L99.4121 44.8875C96.9926 35.3325 91.8379 27.5625 83.948 21.5775C76.0582 15.5925 67.0111 12.6 56.8069 12.6C44.604 12.6 34.1894 16.8525 25.5631 25.3575C16.9369 33.8625 12.6238 44.205 12.6238 56.385C12.6238 62.685 13.9124 68.67 16.4898 74.34C19.0671 80.01 22.7228 85.05 27.4567 89.46L31.5594 93.24V126H18.9356Z" fill="#f87171"/>
</svg>
