<svg xmlns="http://www.w3.org/2000/svg" version="1.1" xmlns:xlink="http://www.w3.org/1999/xlink" xmlns:svgjs="http://svgjs.dev/svgjs" width="3840" height="10000" preserveAspectRatio="none" viewBox="0 0 3840 10000"><g mask="url(&quot;#SvgjsMask1130&quot;)" fill="none"><rect width="3840" height="10000" x="0" y="0" fill="url(&quot;#SvgjsLinearGradient1131&quot;)"></rect><path d="M0 0L1142.6 0L0 4392.03z" fill="rgba(255, 255, 255, .1)"></path><path d="M0 4392.03L1142.6 0L1511.26 0L0 4809.88z" fill="rgba(255, 255, 255, .075)"></path><path d="M0 4809.88L1511.26 0L1849.7 0L0 5265.77z" fill="rgba(255, 255, 255, .05)"></path><path d="M0 5265.77L1849.7 0L2300.73 0L0 8131.26z" fill="rgba(255, 255, 255, .025)"></path><path d="M3840 10000L3411.84 10000L3840 6018.610000000001z" fill="rgba(0, 0, 0, .1)"></path><path d="M3840 6018.610000000001L3411.84 10000L1586.0600000000002 10000L3840 5839.14z" fill="rgba(0, 0, 0, .075)"></path><path d="M3840 5839.14L1586.06 10000L629.18 10000L3840 4227.1z" fill="rgba(0, 0, 0, .05)"></path><path d="M3840 4227.1L629.1799999999998 10000L350.35999999999984 10000L3840 3038.5200000000004z" fill="rgba(0, 0, 0, .025)"></path></g><defs><mask id="SvgjsMask1130"><rect width="3840" height="10000" fill="#ffffff"></rect></mask><linearGradient x1="-40.1%" y1="15.4%" x2="140.1%" y2="84.6%" gradientUnits="userSpaceOnUse" id="SvgjsLinearGradient1131"><stop stop-color="rgba(96, 0, 72, 1)" offset="0"></stop><stop stop-color="rgba(112, 0, 0, 1)" offset="1"></stop></linearGradient></defs></svg>