<svg width="113" height="106" viewBox="0 0 113 106" fill="none" xmlns="http://www.w3.org/2000/svg">
<path d="M69.8 106V92.75H79.75C81.6342 92.75 83.2135 92.1151 84.4881 90.8453C85.7627 89.5755 86.4 88.0021 86.4 86.125V72.875C86.4 68.6792 87.6192 64.8698 90.0575 61.4469C92.4958 58.024 95.71 55.5948 99.7 54.1594V51.8406C95.71 50.4052 92.4958 47.976 90.0575 44.5531C87.6192 41.1302 86.4 37.3208 86.4 33.125V19.875C86.4 17.9979 85.7627 16.4245 84.4881 15.1547C83.2135 13.8849 81.6342 13.25 79.75 13.25H69.8V0H79.75C85.2917 0 90.0021 1.93229 93.8812 5.79688C97.7604 9.66146 99.7 14.3542 99.7 19.875V36.125C99.7 38.0021 100.337 39.5755 101.612 40.8453C102.886 42.1151 104.466 42.75 106.35 42.75H113V63.25H106.35C104.466 63.25 102.886 63.8849 101.612 65.1547C100.337 66.4245 99.7 67.9979 99.7 69.875V86.125C99.7 91.6458 97.7604 96.3385 93.8812 100.203C90.0021 104.068 85.2917 106 79.75 106H69.8ZM33.25 106C27.7083 106 22.9979 104.068 19.1187 100.203C15.2396 96.3385 13.3 91.6458 13.3 86.125V69.875C13.3 67.9979 12.6627 66.4245 11.3881 65.1547C10.1135 63.8849 8.53417 63.25 6.65 63.25H0V42.75H6.65C8.53417 42.75 10.1135 42.1151 11.3881 40.8453C12.6627 39.5755 13.3 38.0021 13.3 36.125V19.875C13.3 14.3542 15.2396 9.66146 19.1187 5.79688C22.9979 1.93229 27.7083 0 33.25 0H43.2V13.25H33.25C31.3658 13.25 29.7865 13.8849 28.5119 15.1547C27.2373 16.4245 26.6 17.9979 26.6 19.875V33.125C26.6 37.3208 25.3808 41.1302 22.9425 44.5531C20.5042 47.976 17.29 50.4052 13.3 51.8406V54.1594C17.29 55.5948 20.5042 58.024 22.9425 61.4469C25.3808 64.8698 26.6 68.6792 26.6 72.875V86.125C26.6 88.0021 27.2373 89.5755 28.5119 90.8453C29.7865 92.1151 31.3658 92.75 33.25 92.75H43.2V106H33.25Z" fill="#f87171"/>
</svg>
