<svg width="120" height="114" viewBox="0 0 120 114" fill="none" xmlns="http://www.w3.org/2000/svg">
<path d="M25.5 113.25C20.8125 113.25 16.1771 112.104 11.5938 109.812C7.01042 107.521 3.3125 104.5 0.5 100.75C3.20833 100.75 5.96875 99.6823 8.78125 97.5468C11.5938 95.4114 13 92.3125 13 88.25C13 83.0416 14.8229 78.6145 18.4688 74.9687C22.1146 71.3229 26.5417 69.5 31.75 69.5C36.9583 69.5 41.3854 71.3229 45.0313 74.9687C48.6771 78.6145 50.5 83.0416 50.5 88.25C50.5 95.125 48.0521 101.01 43.1563 105.906C38.2604 110.802 32.375 113.25 25.5 113.25ZM25.5 100.75C28.9375 100.75 31.8802 99.526 34.3281 97.0781C36.776 94.6302 38 91.6875 38 88.25C38 86.4791 37.401 84.9947 36.2031 83.7968C35.0052 82.5989 33.5208 82 31.75 82C29.9792 82 28.4948 82.5989 27.2969 83.7968C26.099 84.9947 25.5 86.4791 25.5 88.25C25.5 90.6458 25.2135 92.8333 24.6406 94.8125C24.0677 96.7916 23.3125 98.6666 22.375 100.437C22.8958 100.646 23.4167 100.75 23.9375 100.75H25.5ZM61.4375 75.75L44.25 58.5625L100.188 2.62495C101.333 1.47912 102.766 0.88016 104.484 0.828076C106.203 0.775993 107.688 1.37495 108.938 2.62495L117.375 11.0625C118.625 12.3125 119.25 13.7708 119.25 15.4375C119.25 17.1041 118.625 18.5625 117.375 19.8125L61.4375 75.75Z" fill="#f87171"/>
</svg>
