<svg width="135" height="98" viewBox="0 0 135 98" fill="none" xmlns="http://www.w3.org/2000/svg">
<path d="M50.4903 47.4688V41.3438H56.6477H61.2657V36.75V32.1562H56.6477H50.4903V26.0312V21.4375H41.2543V26.0312V32.1562H35.0969H30.4789V36.75V41.3438H35.0969H41.2543V47.4688V52.0625H45.8723H50.4903V47.4688Z" fill="#F6E8EA"/>
<path d="M88.9738 55.125C90.7184 55.125 92.1807 54.538 93.3609 53.3641C94.5411 52.1901 95.1311 50.7354 95.1311 49C95.1311 47.2646 94.5411 45.8099 93.3609 44.6359C92.1807 43.462 90.7184 42.875 88.9738 42.875C87.2292 42.875 85.7668 43.462 84.5867 44.6359C83.4065 45.8099 82.8164 47.2646 82.8164 49C82.8164 50.7354 83.4065 52.1901 84.5867 53.3641C85.7668 54.538 87.2292 55.125 88.9738 55.125Z" fill="#F6E8EA"/>
<path d="M76.6591 42.875C78.4036 42.875 79.866 42.288 81.0462 41.1141C82.2263 39.9401 82.8164 38.4854 82.8164 36.75C82.8164 35.0146 82.2263 33.5599 81.0462 32.3859C79.866 31.212 78.4036 30.625 76.6591 30.625C74.9145 30.625 73.4521 31.212 72.272 32.3859C71.0918 33.5599 70.5017 35.0146 70.5017 36.75C70.5017 38.4854 71.0918 39.9401 72.272 41.1141C73.4521 42.288 74.9145 42.875 76.6591 42.875Z" fill="#F6E8EA"/>
<path d="M101.288 42.875C103.033 42.875 104.495 42.288 105.676 41.1141C106.856 39.9401 107.446 38.4854 107.446 36.75C107.446 35.0146 106.856 33.5599 105.676 32.3859C104.495 31.212 103.033 30.625 101.288 30.625C99.5439 30.625 98.0815 31.212 96.9014 32.3859C95.7212 33.5599 95.1311 35.0146 95.1311 36.75C95.1311 38.4854 95.7212 39.9401 96.9014 41.1141C98.0815 42.288 99.5439 42.875 101.288 42.875Z" fill="#F6E8EA"/>
<path d="M88.9738 30.625C90.7184 30.625 92.1807 30.038 93.3609 28.8641C94.5411 27.6901 95.1311 26.2354 95.1311 24.5C95.1311 22.7646 94.5411 21.3099 93.3609 20.1359C92.1807 18.962 90.7184 18.375 88.9738 18.375C87.2292 18.375 85.7668 18.962 84.5867 20.1359C83.4065 21.3099 82.8164 22.7646 82.8164 24.5C82.8164 26.2354 83.4065 27.6901 84.5867 28.8641C85.7668 30.038 87.2292 30.625 88.9738 30.625Z" fill="#F6E8EA"/>
<path fill-rule="evenodd" clip-rule="evenodd" d="M22.6283 98C16.4709 98 11.2115 95.8052 6.85006 91.4156C2.4886 87.026 0.205245 81.7177 0 75.4906C0 74.5719 0.0513113 73.6531 0.153934 72.7344C0.256556 71.8156 0.41049 70.8969 0.615735 69.9781L13.5462 18.5281C14.9829 13.0156 17.9076 8.54948 22.3204 5.12969C26.7332 1.7099 31.7617 0 37.4059 0H97.4401C103.084 0 108.113 1.7099 112.526 5.12969C116.938 8.54948 119.863 13.0156 121.3 18.5281L134.23 69.9781C134.436 70.8969 134.615 71.8411 134.769 72.8109C134.923 73.7807 135 74.725 135 75.6438C135 81.8708 132.768 87.1536 128.304 91.4922C123.84 95.8307 118.478 98 112.218 98C107.908 98 103.905 96.8771 100.211 94.6312C96.5165 92.3854 93.7457 89.3229 91.8985 85.4437L87.5884 76.5625L86 73.5H82.0468H52.7993H49L47.2577 76.5625L42.9476 85.4437C41.1003 89.3229 38.3295 92.3854 34.6351 94.6312C30.9407 96.8771 26.9384 98 22.6283 98ZM28.4008 84.2188C26.8101 85.2396 25.0399 85.75 23.0901 85.75C20.114 85.75 17.5741 84.7802 15.4704 82.8406C13.3666 80.901 12.3147 78.5021 12.3147 75.6438C12.3147 74.4188 12.4173 73.5 12.6226 72.8875L25.553 21.5906C26.1688 18.8344 27.5798 16.5885 29.7862 14.8531C31.9926 13.1177 34.5325 12.25 37.4059 12.25H97.4401C100.314 12.25 102.828 13.1177 104.983 14.8531C107.138 16.5885 108.575 18.8344 109.293 21.5906L122.223 72.8875C122.429 74.9292 122.531 75.899 122.531 75.7969C122.429 78.6552 121.351 81.0286 119.299 82.9172C117.246 84.8057 114.783 85.75 111.91 85.75C109.96 85.75 108.19 85.2396 106.599 84.2188C105.009 83.1979 103.803 81.8198 102.982 80.0844L98.6716 71.3563L94.5 61.25H82.0468H52.7993H40.5L36.3284 71.3563L32.0182 80.0844C31.1973 81.8198 29.9914 83.1979 28.4008 84.2188Z" fill="#F6E8EA"/>
<path fill-rule="evenodd" clip-rule="evenodd" d="M76.6591 42.875C78.4036 42.875 79.866 42.288 81.0462 41.1141C82.2263 39.9401 82.8164 38.4854 82.8164 36.75C82.8164 35.0146 82.2263 33.5599 81.0462 32.3859C79.866 31.212 78.4036 30.625 76.6591 30.625C74.9145 30.625 73.4521 31.212 72.272 32.3859C71.0918 33.5599 70.5017 35.0146 70.5017 36.75C70.5017 38.4854 71.0918 39.9401 72.272 41.1141C73.4521 42.288 74.9145 42.875 76.6591 42.875ZM88.9738 30.625C90.7184 30.625 92.1807 30.038 93.3609 28.8641C94.5411 27.6901 95.1311 26.2354 95.1311 24.5C95.1311 22.7646 94.5411 21.3099 93.3609 20.1359C92.1807 18.962 90.7184 18.375 88.9738 18.375C87.2292 18.375 85.7668 18.962 84.5867 20.1359C83.4065 21.3099 82.8164 22.7646 82.8164 24.5C82.8164 26.2354 83.4065 27.6901 84.5867 28.8641C85.7668 30.038 87.2292 30.625 88.9738 30.625ZM88.9738 55.125C90.7184 55.125 92.1807 54.538 93.3609 53.3641C94.5411 52.1901 95.1311 50.7354 95.1311 49C95.1311 47.2646 94.5411 45.8099 93.3609 44.6359C92.1807 43.462 90.7184 42.875 88.9738 42.875C87.2292 42.875 85.7668 43.462 84.5867 44.6359C83.4065 45.8099 82.8164 47.2646 82.8164 49C82.8164 50.7354 83.4065 52.1901 84.5867 53.3641C85.7668 54.538 87.2292 55.125 88.9738 55.125ZM101.288 42.875C103.033 42.875 104.495 42.288 105.676 41.1141C106.856 39.9401 107.446 38.4854 107.446 36.75C107.446 35.0146 106.856 33.5599 105.676 32.3859C104.495 31.212 103.033 30.625 101.288 30.625C99.5439 30.625 98.0815 31.212 96.9014 32.3859C95.7212 33.5599 95.1311 35.0146 95.1311 36.75C95.1311 38.4854 95.7212 39.9401 96.9014 41.1141C98.0815 42.288 99.5439 42.875 101.288 42.875Z" fill="#f87171"/>
</svg>
