<svg width="114" height="114" viewBox="0 0 114 114" fill="none" xmlns="http://www.w3.org/2000/svg">
<path d="M44.5 94.5V82H54.1875L70.5938 63.25L54.1875 44.5H43.875L33.875 98.25C33.0417 102.938 31.1146 106.609 28.0938 109.266C25.0729 111.922 21.2188 113.25 16.5313 113.25C11.8438 113.25 8.04167 112 5.125 109.5C2.20833 107 0.75 103.667 0.75 99.5C0.75 96.1667 1.63542 93.4844 3.40625 91.4531C5.17708 89.4219 7.41667 88.4062 10.125 88.4062C12.7292 88.4062 14.9427 89.2917 16.7656 91.0625C18.5885 92.8333 19.5 94.9688 19.5 97.4688C19.5 97.9896 19.474 98.4583 19.4219 98.875C19.3698 99.2917 19.2917 99.7604 19.1875 100.281C19.7083 100.177 20.151 99.8906 20.5156 99.4219C20.8802 98.9531 21.1667 98.3021 21.375 97.4688L31.0625 44.5H13.25V32H33.4062L36.6875 14.1875C37.4167 10.2292 39.3698 7 42.5469 4.5C45.724 2 49.5 0.75 53.875 0.75C58.4583 0.75 62.2083 2.10417 65.125 4.8125C68.0417 7.52083 69.5 10.9063 69.5 14.9688C69.5 18.0938 68.6146 20.6719 66.8438 22.7031C65.0729 24.7344 62.8333 25.75 60.125 25.75C57.5208 25.75 55.3073 24.8646 53.4844 23.0938C51.6615 21.3229 50.75 19.1354 50.75 16.5313C50.75 16.0104 50.776 15.5417 50.8281 15.125C50.8802 14.7083 50.9583 14.2396 51.0625 13.7188C50.4375 13.9271 49.9688 14.2396 49.6562 14.6563C49.3438 15.0729 49.0833 15.6979 48.875 16.5313L46.2188 32H75.75V44.5H70.75L78.875 53.7188L87 44.5H82V32H113.25V44.5H103.563L87.1562 63.25L103.563 82H113.25V94.5H82V82H87L78.875 72.625L70.75 82H75.75V94.5H44.5Z" fill="#f87171"/>
</svg>
