<svg width="112" height="120" viewBox="0 0 112 120" fill="none" xmlns="http://www.w3.org/2000/svg">
<path fill-rule="evenodd" clip-rule="evenodd" d="M7.20475 119.124V100.129H26.833L10.6872 47.2592C7.83792 45.6762 5.48992 43.3546 3.64317 40.2943C1.79642 37.2339 0.873047 33.9626 0.873047 30.4801C0.873047 25.2037 2.71979 20.7188 6.41329 17.0253C10.1068 13.3318 14.5917 11.485 19.8682 11.485C23.9838 11.485 27.6509 12.6722 30.8695 15.0466C34.0881 17.421 36.3306 20.4549 37.5969 24.1484H57.8584V17.8167V11H69.2555V14.0177L83.5 0.5L111.994 14.0177L108.195 22.5655L85.4013 12.1182L70.5218 26.0479V34.9123L85.4013 48.5255L108.195 38.0782L111.994 46.626L83.5 60.5L69.2555 46.9426V50H57.8584V43.1435V36.8118H37.5969C37.2804 37.6561 36.9374 38.4475 36.568 39.1862C36.1987 39.9249 35.6974 40.7164 35.0643 41.5606L66.7228 100.129H89.5169V119.124H7.20475ZM24.3795 34.9915C23.1659 36.205 21.6621 36.8118 19.8682 36.8118C18.0742 36.8118 16.5704 36.205 15.3568 34.9915C14.1432 33.7779 13.5365 32.2741 13.5365 30.4801C13.5365 28.6861 14.1432 27.1824 15.3568 25.9688C16.5704 24.7552 18.0742 24.1484 19.8682 24.1484C21.6621 24.1484 23.1659 24.7552 24.3795 25.9688C25.5931 27.1824 26.1999 28.6861 26.1999 30.4801C26.1999 32.2741 25.5931 33.7779 24.3795 34.9915ZM52.1599 100.129H39.813L24.3004 49.4752H24.9335L52.1599 100.129Z" fill="#f87171"/>
</svg>
