<svg width="126" height="126" viewBox="0 0 126 126" fill="none" xmlns="http://www.w3.org/2000/svg">
<path d="M53.4577 60.1333V76.0721H65.2792V68.3442H65.8558C70.2769 68.3442 74.0572 67.4426 77.1968 65.6395C80.4005 63.8363 82.8352 61.3891 84.5011 58.298C86.167 55.2068 87 51.7292 87 47.8653C87 43.8082 86.0709 40.2018 84.2128 37.0463C82.3547 33.8907 79.6636 31.4435 76.1396 29.7048C72.6156 27.9016 68.3867 27 63.4531 27C59.8009 27 56.4371 27.4508 53.3616 28.3524C50.3501 29.1896 47.5629 30.4776 45 32.2163V43.615C46.73 42.0694 49.0046 40.717 51.8238 39.5578C54.643 38.3986 57.8787 37.819 61.5309 37.819C65.7597 37.819 68.9634 38.8494 71.1419 40.9102C73.3204 42.971 74.4096 45.6435 74.4096 48.9279C74.4096 52.4698 73.2243 55.239 70.8535 57.2354C68.4828 59.1673 64.9268 60.1333 60.1854 60.1333H53.4577Z" fill="#f87171"/>
<path d="M53.746 95.7782C55.2838 97.2594 57.238 98 59.6087 98C61.8513 98 63.7094 97.2594 65.1831 95.7782C66.6567 94.2327 67.3936 92.3329 67.3936 90.0789C67.3936 87.8893 66.6567 86.054 65.1831 84.5728C63.7094 83.0916 61.8513 82.351 59.6087 82.351C58.0709 82.351 56.6934 82.7052 55.476 83.4136C54.2586 84.0576 53.2975 84.9914 52.5927 86.215C51.8879 87.3741 51.5355 88.6621 51.5355 90.0789C51.5355 92.3329 52.2723 94.2327 53.746 95.7782Z" fill="#f87171"/>
<path fill-rule="evenodd" clip-rule="evenodd" d="M38.625 120.578C46.2292 123.859 54.3542 125.5 63 125.5C71.6458 125.5 79.7708 123.859 87.375 120.578C94.9792 117.297 101.594 112.844 107.219 107.219C112.844 101.594 117.297 94.9792 120.578 87.375C123.859 79.7708 125.5 71.6458 125.5 63C125.5 54.3542 123.859 46.2292 120.578 38.625C117.297 31.0208 112.844 24.4062 107.219 18.7812C101.594 13.1562 94.9792 8.70312 87.375 5.42188C79.7708 2.14062 71.6458 0.5 63 0.5C54.3542 0.5 46.2292 2.14062 38.625 5.42188C31.0208 8.70312 24.4062 13.1562 18.7812 18.7812C13.1562 24.4062 8.70312 31.0208 5.42188 38.625C2.14062 46.2292 0.5 54.3542 0.5 63C0.5 71.6458 2.14062 79.7708 5.42188 87.375C8.70312 94.9792 13.1562 101.594 18.7812 107.219C24.4062 112.844 31.0208 117.297 38.625 120.578ZM98.4688 98.4688C88.7812 108.156 76.9583 113 63 113C49.0417 113 37.2188 108.156 27.5313 98.4688C17.8438 88.7812 13 76.9583 13 63C13 49.0417 17.8438 37.2188 27.5313 27.5313C37.2188 17.8438 49.0417 13 63 13C76.9583 13 88.7812 17.8438 98.4688 27.5313C108.156 37.2188 113 49.0417 113 63C113 76.9583 108.156 88.7812 98.4688 98.4688Z" fill="#f87171"/>
</svg>
